<?xml version="1.0" standalone="no"?><!DOCTYPE svg PUBLIC "-//W3C//DTD SVG 1.1//EN" "http://www.w3.org/Graphics/SVG/1.1/DTD/svg11.dtd"><svg t="1602610256928" class="icon" viewBox="0 0 1024 1024" version="1.1" xmlns="http://www.w3.org/2000/svg" p-id="3103" xmlns:xlink="http://www.w3.org/1999/xlink" width="32" height="32"><defs><style type="text/css"></style></defs><path d="M512 0c282.8 0 512 229.2 512 512s-229.2 512-512 512S0 794.8 0 512 229.2 0 512 0z" fill="#3E5BF2" p-id="3104"></path><path d="M289.4 621.5h108.6c0 22.1 6.5 40.5 19.6 55.1 19.6 21.6 51.3 32.4 95.1 32.4 32.2 0 57.8-4.5 77-13.6 24.1-11.6 36.2-30.4 36.2-56.5 0-19.6-9.1-34.4-27.2-44.4-12.1-6.5-35.7-14.1-70.9-22.6l-58.1-13.6c-57.8-13.6-97.3-27.6-118.4-42.2-35.7-24.6-53.6-63.5-53.6-116.7 0-41.7 12.6-76.8 37.7-105.5 35.7-40.7 92.5-61 170.5-61 73.9 0 129.8 20.8 167.5 62.3 29.2 32.1 43.8 69.4 43.8 111.9H608.6c-2.5-21.4-8.8-37.9-18.9-49.3-18.1-20.9-48.8-31.4-92-31.4-25.6 0-46.8 4.5-63.4 13.6-20.6 11.6-30.9 28.6-30.9 51.2 0 18.6 6.5 32.7 19.6 42.2 7.5 5.5 20.1 10.3 37.7 14.3l132 32.4c44.8 11.1 77.7 25.4 98.8 42.9 28.7 23.6 43 57.7 43 102.4 0 54.7-18.1 97.2-54.3 127.3-39.7 33.1-92.8 49.7-159.2 49.7-88 0-151.4-21.6-190.1-64.9-27.6-30.5-41.5-69.2-41.5-116z" fill="#FFFFFF" p-id="3105"></path><path d="M461.6 714.8h100v126.6h-100zM461.6 182.6h100v126.6h-100z" fill="#FFFFFF" p-id="3106"></path></svg>